            <svg xmlns="http://www.w3.org/2000/svg">
              <symbol viewBox="0 0 32 32" id="radius">
                <circle cx="16" cy="16" r="16" fill="#D9D9D9"/>
              </symbol>
              <symbol viewBox="0 0 57 16" id="arrow">
                <path d="M56.6776 8.70711C57.0682 8.31658 57.0682 7.68342 56.6776 7.29289L50.3137 0.928932C49.9231 0.538408 49.29 0.538408 48.8995 0.928932C48.5089 1.31946 48.5089 1.95262 48.8995 2.34315L54.5563 8L48.8995 13.6569C48.5089 14.0474 48.5089 14.6805 48.8995 15.0711C49.29 15.4616 49.9231 15.4616 50.3137 15.0711L56.6776 8.70711ZM0 9H55.9705V7H0V9Z"></path>
              </symbol>
              <symbol viewBox="0 0 14 8" id="up">
                <path d="M1 7L6.29289 1.31461C6.68342 0.895129 7.31658 0.895128 7.70711 1.31461L13 7" stroke="#0F0F0F" stroke-width="2" stroke-linecap="round" stroke-linejoin="round"/> 
              </symbol>
              <symbol viewBox="0 0 18 18" fill="none" id="home">
                <path d="M7.22222 13.4444H10.7778M14.3333 17H3.66667C2.19391 17 1 15.8061 1 14.3333V9C1 8.29275 1.28095 7.61448 1.78105 7.11438L7.11438 1.78105C8.15578 0.73965 9.84422 0.73965 10.8856 1.78105L16.219 7.11438C16.719 7.61448 17 8.29275 17 9V14.3333C17 15.8061 15.8061 17 14.3333 17Z" stroke="#646464" stroke-width="2" stroke-linejoin="round"/>
              </symbol>
            </svg>